<?xml version="1.0" encoding="UTF-8" standalone="no"?>
<!-- Created with Inkscape (http://www.inkscape.org/) -->

<svg
   width="25mm"
   height="25mm"
   viewBox="0 0 25.000002 24.999997"
   version="1.1"
   id="svg5"
   inkscape:version="1.1.2 (0a00cf5339, 2022-02-04)"
   sodipodi:docname="icon.svg"
   inkscape:export-filename="/home/ben/src/labtech/docs/images/icon.png"
   inkscape:export-xdpi="65.019997"
   inkscape:export-ydpi="65.019997"
   xmlns:inkscape="http://www.inkscape.org/namespaces/inkscape"
   xmlns:sodipodi="http://sodipodi.sourceforge.net/DTD/sodipodi-0.dtd"
   xmlns="http://www.w3.org/2000/svg"
   xmlns:svg="http://www.w3.org/2000/svg">
  <sodipodi:namedview
     id="namedview7"
     pagecolor="#ffffff"
     bordercolor="#666666"
     borderopacity="1.0"
     inkscape:pageshadow="2"
     inkscape:pageopacity="0.0"
     inkscape:pagecheckerboard="0"
     inkscape:document-units="mm"
     showgrid="false"
     showguides="true"
     fit-margin-top="0"
     fit-margin-left="0"
     fit-margin-right="0"
     fit-margin-bottom="0"
     inkscape:zoom="4.280621"
     inkscape:cx="64.359821"
     inkscape:cy="51.277607"
     inkscape:window-width="1856"
     inkscape:window-height="1016"
     inkscape:window-x="64"
     inkscape:window-y="27"
     inkscape:window-maximized="1"
     inkscape:current-layer="g107149-4-5-4" />
  <defs
     id="defs2">
    <rect
       x="275.09335"
       y="598.74805"
       width="81.324135"
       height="71.140877"
       id="rect70779" />
    <rect
       x="275.09335"
       y="598.74805"
       width="81.324135"
       height="71.140877"
       id="rect70779-7" />
    <rect
       x="275.09335"
       y="598.74805"
       width="81.324135"
       height="71.140877"
       id="rect70779-5" />
    <rect
       x="275.09335"
       y="598.74805"
       width="81.324135"
       height="71.140877"
       id="rect70779-7-6" />
    <rect
       x="275.09335"
       y="598.74805"
       width="81.324135"
       height="71.140877"
       id="rect70779-5-1" />
    <rect
       x="275.09335"
       y="598.74805"
       width="81.324135"
       height="71.140877"
       id="rect70779-7-6-7" />
    <rect
       x="275.09335"
       y="598.74805"
       width="81.324135"
       height="71.140877"
       id="rect70779-5-1-1" />
    <rect
       x="275.09335"
       y="598.74805"
       width="81.324135"
       height="71.140877"
       id="rect70779-7-6-7-1" />
    <rect
       x="275.09335"
       y="598.74805"
       width="81.324135"
       height="71.140877"
       id="rect70779-5-1-1-9" />
    <rect
       x="275.09335"
       y="598.74805"
       width="81.324135"
       height="71.140877"
       id="rect70779-5-1-1-1" />
    <rect
       x="275.09335"
       y="598.74805"
       width="81.324135"
       height="71.140877"
       id="rect70779-7-6-7-1-1" />
  </defs>
  <g
     inkscape:label="Layer 1"
     inkscape:groupmode="layer"
     id="layer1"
     transform="translate(-77.900443,-272.66979)">
    <g
       id="g107641-9-1-4"
       transform="matrix(0.70472742,0,0,0.70472742,3.4756151,184.21472)"
       style="stroke-width:1.85178;stroke-miterlimit:4;stroke-dasharray:none">
      <g
         id="g107641-9-1-4-5"
         transform="translate(-3.2705335,-0.24634588)"
         style="stroke-width:1.85178;stroke-miterlimit:4;stroke-dasharray:none">
        <circle
           style="opacity:1;fill:#4618f1;fill-opacity:1;stroke:#1d0772;stroke-width:1.85178;stroke-linecap:round;stroke-miterlimit:4;stroke-dasharray:none;stroke-opacity:1"
           id="path65356-8-8-4"
           cx="126.61585"
           cy="143.50041"
           r="16.811464" />
        <g
           id="g107149-4-5-4"
           transform="translate(-0.93782447,-0.93086119)"
           style="stroke-width:1.85178;stroke-miterlimit:4;stroke-dasharray:none">
          <g
             aria-label="l"
             transform="matrix(0.53151138,0,0,0.53151138,-29.963092,-186.44292)"
             id="text70777-8-9-7"
             style="font-size:40px;line-height:1.25;white-space:pre;shape-inside:url(#rect70779-5-1-1-1);fill:#ffffff;stroke-width:3.48399">
            <path
               d="m 293.29375,635.25574 q -0.16,0.08 -0.64,0.32 -0.44,0.2 -1.2,0.4 -0.76,0.2 -1.8,0.36 -1,0.16 -2.24,0.16 -2.72,0 -4.08,-1.4 -1.36,-1.4 -1.36,-3.92 0,-0.68 0.08,-1.4 0.12,-0.76 0.32,-1.56 l 3.72,-15.6 h -5.2 l 0.96,-4.08 h 10.12 l -4.72,20 q -0.08,0.4 -0.2,0.88 -0.08,0.44 -0.08,0.8 0,0.8 0.44,1.4 0.44,0.6 1.8,0.6 0.56,0 1.12,-0.08 0.6,-0.12 1.12,-0.28 0.52,-0.16 0.92,-0.28 0.4,-0.12 0.6,-0.2 z"
               style="font-style:italic;font-weight:bold;font-family:'Ubuntu Mono';-inkscape-font-specification:'Ubuntu Mono, Bold'"
               id="path842" />
          </g>
          <g
             aria-label="t"
             transform="matrix(0.53151138,0,0,0.53151138,-21.711279,-186.44292)"
             id="text70777-7-1-7-6"
             style="font-size:40px;line-height:1.25;white-space:pre;shape-inside:url(#rect70779-7-6-7-1-1);fill:#ffffff;stroke-width:3.48399">
            <path
               d="m 283.25375,621.33574 h -3.76 l 1,-4.08 h 3.72 l 1.12,-4.72 5.16,-0.8 -1.36,5.52 h 7.16 l -1,4.08 h -7.12 l -1.76,7.32 q -0.2,1 -0.2,1.56 0,1.2 0.8,1.6 0.84,0.4 1.88,0.4 1.08,0 2.2,-0.24 1.16,-0.28 2.24,-0.72 l -0.04,4.12 q -1.24,0.56 -2.76,0.84 -1.48,0.28 -2.96,0.28 -3.2,0 -4.8,-1.36 -1.56,-1.4 -1.56,-4.04 0,-0.64 0.08,-1.28 0.08,-0.68 0.28,-1.44 z"
               style="font-style:italic;font-weight:bold;font-family:'Ubuntu Mono';-inkscape-font-specification:'Ubuntu Mono, Bold'"
               id="path863" />
          </g>
        </g>
      </g>
    </g>
  </g>
</svg>
